<svg width="205" height="214" viewBox="0 0 205 214" fill="none" xmlns="http://www.w3.org/2000/svg">
<path d="M161.409 158.648L172.56 160.781C164.115 171.677 151.456 181.526 137.76 188.27C136.645 188.759 135.336 189.377 133.77 190.142C133.006 190.475 132.255 190.814 131.476 191.12C113.144 198.05 109.039 173.321 109.039 162.545V74.474L151.195 77.174V63.38L109.039 66.11V56.021C121.586 53.09 130.93 41.957 130.93 28.646C130.93 13.106 118.204 0.496994 102.497 0.496994C86.7924 0.496994 74.0604 13.106 74.0604 28.646C74.0604 41.966 83.42 53.105 95.9733 56.027V66.11L53.8169 63.38V77.174L95.9733 74.474V162.542C95.9733 173.321 91.8707 198.053 73.518 191.117C72.7666 190.808 72.0121 190.472 71.2516 190.139C69.6669 189.374 68.3519 188.756 67.2338 188.255C53.5412 181.505 40.897 171.674 32.4524 160.778L43.5937 158.645L0.564697 146.681C8.03365 165.245 22.4049 179.06 22.4049 179.06V168.116C28.7285 173.63 33.8644 177.866 33.8644 177.866V177.851C61.0829 197.957 101.218 213.5 102.503 213.5C103.788 213.5 143.914 197.957 171.145 177.851V177.866C171.145 177.866 176.277 173.63 182.595 168.116V179.06C182.595 179.06 196.972 165.245 204.438 146.681L161.409 158.648ZM83.6049 28.649C83.6049 18.329 92.0767 9.93199 102.494 9.93199C112.92 9.93199 121.392 18.329 121.392 28.649C121.392 38.969 112.92 47.357 102.494 47.357C92.0767 47.357 83.6049 38.969 83.6049 28.649Z" fill="black"/>
</svg>
